<?xml version="1.0" standalone="no"?><!DOCTYPE svg PUBLIC "-//W3C//DTD SVG 1.1//EN" "http://www.w3.org/Graphics/SVG/1.1/DTD/svg11.dtd"><svg t="1582622828943" class="icon" viewBox="0 0 1024 1024" version="1.1" xmlns="http://www.w3.org/2000/svg" p-id="12234" xmlns:xlink="http://www.w3.org/1999/xlink" width="200" height="200"><defs><style type="text/css"></style></defs><path d="M866.4 569.9c-4.4-14.8-13-27-24.1-35.4 11.2-17.3 15.2-39.6 8.9-61-1-3.3-2.1-6.4-3.5-9.4 4.6-5.5 7.4-12.7 7.4-20.7 0-13.6-8.1-25.1-19.5-29.2 5.4-8.2 8.5-18.2 8.5-29 0-19.1-9.9-35.7-24.5-44.3 4.2-5.4 6.7-12.3 6.7-19.9 0-17-12.8-30.8-28.7-30.8h-0.4v-1.6c0-27.8-20.9-50.3-46.8-50.3-3.8 0-7.6 0.5-11.2 1.5-19.9-53.4-76-81.8-128.9-63.7-13.6 4.6-25.6 11.9-35.9 21-15.1-28-47.1-41.8-77.5-31.4-6.1 2.1-11.7 5-16.7 8.6-25.8-18.9-59.4-25.3-91.8-14.2-28.5 9.8-50.6 31.1-62.9 57.5-9.3-5.1-20.5-6.5-31.3-2.8-16.4 5.6-27.3 21.2-28.5 38.3-12.4-4-26.1-4.1-39.5 0.5-35 12-54.6 51.6-43.7 88.5 2.3 7.8 5.8 14.8 10.1 20.9-21.9 4.2-38.5 24.8-38.5 49.5 0 21.3 12.3 39.5 29.7 46.9-12.4 14.2-20 33.4-20 54.4 0 33.5 19.3 62.2 46.5 73.9-2.1 1.4-4 2.9-5.9 4.5-3.1 2-5.7 4.7-7.9 7.7-12.6 14.3-20.4 33.6-20.4 54.9 0 39.9 27.4 73 63 78.7-0.1 1.5-0.2 3-0.2 4.6 0 27.8 20.9 50.3 46.8 50.3 6.6 0 12.9-1.5 18.6-4.2 7.3 35.7 36.8 62.4 72.2 62.4 15.5 0 29.8-5.1 41.7-13.9 8.4 8.6 19.7 13.9 32.2 13.9 9.8 0 18.9-3.3 26.5-8.8 6.8 18.8 23.7 32.1 43.6 32.1 17 0 31.8-9.7 40-24.3 8 6.9 18.1 11 29.1 11 16.7 0 31.4-9.4 39.6-23.6 10.3 11.2 26.2 15.8 41.4 10.6 10.5-3.6 18.8-11.3 23.7-20.8 3.1 0.7 6.4 1.1 9.7 1.1 22.6 0 41.4-17.2 45.8-40.2 50.5-17.6 80.5-71.5 71.8-125.2l0.9-0.3c35.2-11.8 54.7-51.4 43.9-88.3z" fill="#754C24" p-id="12235"></path><path d="M421 170.8c17.9 0 35.1 5.7 49.9 16.5 2.8 2.1 6.1 3.1 9.5 3.1 3.2 0 6.5-1 9.2-2.9 4-2.8 8.2-5 12.7-6.5 5-1.7 10.2-2.6 15.4-2.6 17.7 0 34.1 10.1 42.9 26.5 2.3 4.3 6.5 7.3 11.3 8.2 0.9 0.2 1.9 0.2 2.8 0.2 3.9 0 7.7-1.4 10.6-4.1 9-8 19.2-14 30.4-17.9 8.9-3 18.1-4.6 27.3-4.6 17.4 0 34.2 5.4 48.7 15.7 14.8 10.5 26.1 25.4 32.7 43 2.4 6.4 8.5 10.4 15 10.4 1.4 0 2.7-0.2 4.1-0.5 2.3-0.6 4.7-0.9 7.1-0.9 17 0 30.8 15.4 30.8 34.3v1.1c-0.1 4.4 1.5 8.6 4.6 11.7 3 3.1 7.1 4.8 11.4 4.8h0.5c6.9 0.1 12.5 6.7 12.5 14.8 0 3.7-1.2 7.2-3.3 10-2.9 3.6-4 8.3-3.1 12.9 0.9 4.5 3.7 8.5 7.6 10.8 10.2 6 16.6 17.6 16.6 30.4 0 7.3-2 14.3-5.9 20.2-2.7 4.1-3.3 9.2-1.8 13.8 1.5 4.6 5.1 8.3 9.7 10 5.3 1.9 8.9 7.8 8.9 14.2 0 3.9-1.3 7.6-3.6 10.4-4 4.7-4.9 11.3-2.3 16.9 1.1 2.4 2 4.8 2.7 7.3 4.8 16.2 2.3 33.6-6.9 47.7-4.6 7-2.9 16.4 3.7 21.4 8.8 6.7 15.2 16.1 18.4 27.2 8.5 28.7-6.5 59.5-33.4 68.8h-0.1c-0.2 0.1-0.5 0.1-0.7 0.2-7.5 2.4-12.1 10-10.8 17.8 3.6 22.5-0.6 45.9-11.8 65.7-11.3 19.8-28.8 34.7-49.4 41.9-5.4 1.9-9.4 6.5-10.5 12.1-3 15.7-15.7 27.2-30.1 27.2-2.1 0-4.1-0.2-6.2-0.7-1.2-0.3-2.4-0.4-3.6-0.4-5.9 0-11.5 3.3-14.2 8.7-3.2 6.2-8.4 10.9-14.6 13-2.4 0.8-4.9 1.3-7.4 1.3-6.3 0-12.5-2.8-17-7.6-3-3.3-7.3-5.1-11.7-5.1-0.6 0-1.2 0-1.8 0.1-5 0.6-9.5 3.5-12.1 7.8-5.7 9.8-15.4 15.7-25.8 15.7-6.8 0-13.3-2.5-18.7-7.1-2.9-2.5-6.6-3.9-10.4-3.9-0.9 0-1.8 0.1-2.8 0.2-4.7 0.8-8.8 3.7-11.2 7.9-5.7 10.1-15.4 16.1-26.1 16.1-12.6 0-23.8-8.4-28.5-21.5-1.7-4.7-5.6-8.4-10.4-9.9-1.5-0.5-3.1-0.7-4.6-0.7-3.4 0-6.7 1.1-9.5 3.1-5 3.7-10.9 5.7-16.9 5.7-7.7 0-15.1-3.2-20.8-9-3.1-3.2-7.3-4.8-11.4-4.8-3.3 0-6.6 1-9.5 3.1-9.5 7-20.7 10.7-32.2 10.7-13.3 0-25.8-4.8-36.1-13.9-10.3-9-17.6-21.7-20.4-35.8-1-4.8-4.1-8.9-8.5-11.1-2.3-1.1-4.7-1.7-7.2-1.7-2.3 0-4.6 0.5-6.8 1.5-3.8 1.8-7.8 2.7-11.9 2.7-17 0-30.8-15.4-30.8-34.3 0-1 0-2.1 0.1-3.2 0.7-8.3-5.2-15.8-13.4-17.1-13.5-2.1-25.9-9.5-35-20.8-9.4-11.6-14.6-26.6-14.6-42.1 0-16.6 5.8-32.3 16.4-44.3 0.4-0.5 0.8-0.9 1.1-1.4 1-1.5 2.2-2.7 3.6-3.6 0.5-0.3 1-0.7 1.5-1.1 1.5-1.3 3.1-2.5 4.7-3.6 4.8-3.3 7.4-8.9 6.9-14.8-0.6-5.8-4.2-10.8-9.6-13.1-10.6-4.6-19.7-12.4-26.3-22.7-6.9-10.7-10.5-23.3-10.5-36.5 0-16.4 5.7-32 16.1-43.9 3.4-3.9 4.7-9.1 3.5-14.1-1.2-5-4.6-9.1-9.4-11.1-11.9-5-19.9-17.9-19.9-32.1 0-16.7 10.7-31 25.5-33.8 5.3-1 9.8-4.7 11.8-9.8 2-5.1 1.3-10.8-1.8-15.2-3.5-4.9-6.1-10.3-7.8-16.2-8.5-28.7 6.6-59.6 33.5-68.8 5-1.7 10.2-2.6 15.3-2.6 4.8 0 9.6 0.7 14.2 2.2 1.6 0.5 3.2 0.8 4.9 0.8 3.2 0 6.3-0.9 9-2.8 4.1-2.8 6.6-7.2 7-12.1 0.8-11.2 7.9-20.9 17.7-24.3 2.4-0.8 4.9-1.3 7.4-1.3 3.8 0 7.6 1 11 2.9 2.4 1.3 5.1 2 7.8 2 1.7 0 3.3-0.3 4.9-0.8 4.2-1.4 7.7-4.4 9.6-8.5 11-23.6 30-41.1 53.6-49.1 8.6-2.8 17.8-4.4 27-4.4m0-16c-10.7 0-21.7 1.8-32.5 5.4-28.5 9.8-50.6 31.1-62.9 57.5-5.7-3.2-12.1-4.9-18.7-4.9-4.2 0-8.4 0.7-12.6 2.1-16.4 5.6-27.3 21.2-28.5 38.3-6.1-1.9-12.5-3-19-3-6.8 0-13.7 1.1-20.5 3.4-35 12-54.6 51.6-43.7 88.5 2.3 7.8 5.8 14.8 10.1 20.9-21.9 4.2-38.5 24.8-38.5 49.5 0 21.3 12.3 39.5 29.7 46.9-12.4 14.2-20 33.4-20 54.4 0 33.5 19.3 62.2 46.5 73.9-2.1 1.4-4 2.9-5.9 4.5-3.1 2-5.7 4.7-7.9 7.7-12.6 14.3-20.4 33.6-20.4 54.9 0 39.9 27.4 73 63 78.7-0.1 1.5-0.2 3-0.2 4.6 0 27.8 20.9 50.3 46.8 50.3 6.6 0 12.9-1.5 18.6-4.2 7.3 35.7 36.8 62.4 72.2 62.4 15.5 0 29.8-5.1 41.7-13.9 8.4 8.6 19.7 13.9 32.2 13.9 9.8 0 18.9-3.3 26.5-8.8 6.8 18.8 23.7 32.1 43.6 32.1 17 0 31.8-9.7 40-24.3 8 6.9 18.1 11 29.1 11 16.7 0 31.4-9.4 39.6-23.6 7.5 8.1 17.9 12.8 28.8 12.8 4.2 0 8.4-0.7 12.6-2.1 10.5-3.6 18.8-11.3 23.7-20.8 3.1 0.7 6.4 1.1 9.7 1.1 22.6 0 41.4-17.2 45.8-40.2 50.5-17.6 80.5-71.5 71.8-125.2l0.9-0.3c35-12 54.6-51.6 43.7-88.5-4.4-14.8-13-27-24.1-35.4 11.2-17.3 15.2-39.6 8.9-61-1-3.3-2.1-6.4-3.5-9.4 4.6-5.5 7.4-12.7 7.4-20.7 0-13.6-8.1-25.1-19.5-29.2 5.4-8.2 8.5-18.2 8.5-29 0-19.1-9.9-35.7-24.5-44.3 4.2-5.4 6.7-12.3 6.7-19.9 0-17-12.8-30.8-28.7-30.8h-0.4v-1.6c0-27.8-20.9-50.3-46.8-50.3-3.8 0-7.6 0.5-11.2 1.5-15.8-42.5-54.6-69.1-96.4-69.1-10.7 0-21.7 1.8-32.5 5.4-13.6 4.6-25.6 11.9-35.9 21-11.7-21.7-33.6-34.9-57-34.9-6.8 0-13.7 1.1-20.5 3.4-6.1 2.1-11.7 5-16.7 8.6-17-12.2-37.7-19.3-59.1-19.3z" fill="" p-id="12236"></path><path d="M512.4 516m-258 0a258 258 0 1 0 516 0 258 258 0 1 0-516 0Z" fill="#FCCB00" p-id="12237"></path><path d="M512.4 274c32.7 0 64.4 6.4 94.2 19 28.8 12.2 54.7 29.6 76.9 51.9 22.2 22.2 39.7 48.1 51.9 76.9 12.6 29.8 19 61.5 19 94.2s-6.4 64.4-19 94.2c-12.2 28.8-29.6 54.7-51.9 76.9-22.2 22.2-48.1 39.7-76.9 51.9-29.8 12.6-61.5 19-94.2 19s-64.4-6.4-94.2-19c-28.8-12.2-54.7-29.6-76.9-51.9-22.2-22.2-39.7-48.1-51.9-76.9-12.6-29.8-19-61.5-19-94.2s6.4-64.4 19-94.2c12.2-28.8 29.6-54.7 51.9-76.9 22.2-22.2 48.1-39.7 76.9-51.9 29.8-12.6 61.5-19 94.2-19m0-16c-142.5 0-258 115.5-258 258s115.5 258 258 258 258-115.5 258-258-115.5-258-258-258z" fill="" p-id="12238"></path><path d="M416.3 429.2m-18 0a18 18 0 1 0 36 0 18 18 0 1 0-36 0Z" fill="" p-id="12239"></path><path d="M608.4 429.2m-18 0a18 18 0 1 0 36 0 18 18 0 1 0-36 0Z" fill="" p-id="12240"></path><path d="M337.9 326c17.2-15.8 36.6-29.3 57.6-40-3.7-17.1-18.9-30-37.1-30-21 0-38 17-38 38-0.1 13.4 6.9 25.2 17.5 32z" fill="#FCCB00" p-id="12241"></path><path d="M358.3 256c18.2 0 33.5 12.9 37.1 30-21 10.7-40.4 24.2-57.6 40-10.6-6.8-17.6-18.6-17.6-32 0.1-21 17.1-38 38.1-38m0-16c-29.8 0-54 24.2-54 54 0 18.5 9.3 35.5 24.9 45.5 2.6 1.7 5.6 2.5 8.6 2.5 3.9 0 7.8-1.4 10.8-4.2 16.3-14.9 34.4-27.6 54-37.5 6.5-3.3 9.9-10.5 8.4-17.6-2.6-11.9-9.2-22.7-18.6-30.5-9.5-7.9-21.6-12.2-34.1-12.2z" fill="" p-id="12242"></path><path d="M686.5 325.6a37.9 37.9 0 0 0 17-31.7c0-21-17-38-38-38-18.1 0-33.2 12.7-37.1 29.6 21.3 10.8 40.8 24.3 58.1 40.1z" fill="#FCCB00" p-id="12243"></path><path d="M665.6 256c21 0 38 17 38 38 0 13.2-6.8 24.9-17 31.7-17.3-15.9-36.8-29.4-58-40.1 3.7-17 18.9-29.6 37-29.6m0-16c-12.3 0-24.4 4.3-34 12-9.4 7.6-16.1 18.3-18.7 30.1-1.6 7.2 1.8 14.5 8.4 17.8 19.8 10 38.1 22.6 54.4 37.6 3 2.8 6.9 4.2 10.8 4.2 3.1 0 6.1-0.9 8.8-2.7 15.1-10 24.2-26.9 24.2-45 0.1-29.8-24.2-54-53.9-54z" fill="" p-id="12244"></path><path d="M512.4 547.2c-88.9 0-167.3 45-213.7 113.4C345.1 729 423.5 774 512.4 774s167.3-45 213.7-113.4c-46.4-68.4-124.8-113.4-213.7-113.4z" fill="#FFFFFF" p-id="12245"></path><path d="M512.4 563.2c40.2 0 80 10.1 115.2 29.1 30.8 16.7 57.9 40.2 78.9 68.3-21 28.1-48.1 51.6-78.9 68.3-35.1 19-74.9 29.1-115.2 29.1s-80-10.1-115.2-29.1c-30.8-16.7-57.9-40.2-78.9-68.3 21-28.1 48.1-51.6 78.9-68.3 35.1-19.1 75-29.1 115.2-29.1m0-16c-88.9 0-167.3 45-213.7 113.4C345.1 729 423.5 774 512.4 774s167.3-45 213.7-113.4c-46.4-68.4-124.8-113.4-213.7-113.4z" fill="" p-id="12246"></path><path d="M540.9 546.2c0-0.1 0.1-0.2 0.1-0.3 0.1-0.3 0.2-0.5 0.3-0.8v-0.1c0.8-3.5-0.5-7-3.2-9.1l-0.9-0.6s-0.1 0-0.2-0.1c-0.3-0.2-0.6-0.3-0.9-0.5-0.1 0-0.2-0.1-0.3-0.1-0.3-0.1-0.5-0.2-0.8-0.3-0.2 0-0.3-0.1-0.5-0.1-0.2-0.1-0.5-0.1-0.7-0.1h-40.5c-4.8 0-8.3 3.6-8.9 7.7-0.1 0.8-0.1 1.5 0 2.3 0.1 1.2 0.5 2.3 1.2 3.5l12.4 21.5 7 12V638c0 4.4 3.6 8 8 8s8-3.6 8-8v-57l19.4-33.7c0.1-0.3 0.3-0.7 0.5-1.1z" fill="" p-id="12247"></path></svg>