<?xml version="1.0" standalone="no"?><!DOCTYPE svg PUBLIC "-//W3C//DTD SVG 1.1//EN" "http://www.w3.org/Graphics/SVG/1.1/DTD/svg11.dtd"><svg t="1582966873246" class="icon" viewBox="0 0 1024 1024" version="1.1" xmlns="http://www.w3.org/2000/svg" p-id="2289" xmlns:xlink="http://www.w3.org/1999/xlink" width="200" height="200"><defs><style type="text/css"></style></defs><path d="M1011.017143 560.091429L556.8 24.685714a57.6 57.6 0 0 0-89.6 0L12.982857 560.091429a57.6 57.6 0 0 0 44.8 93.805714c31.817143 0 77.348571 25.782857 77.348572 57.6v251.611428a57.6 57.6 0 0 0 57.6 57.6h102.948571a57.6 57.6 0 0 0 57.6-57.6v-171.154285a57.6 57.6 0 0 1 57.6-57.6h202.24a57.6 57.6 0 0 1 57.6 57.6v171.154285a57.6 57.6 0 0 0 57.6 57.6h102.948571a57.6 57.6 0 0 0 57.6-57.6V711.497143c0-31.817143 45.531429-57.6 77.348572-57.6a57.6 57.6 0 0 0 44.8-93.805714z" p-id="2290"></path></svg>