<?xml version="1.0" standalone="no"?><!DOCTYPE svg PUBLIC "-//W3C//DTD SVG 1.1//EN" "http://www.w3.org/Graphics/SVG/1.1/DTD/svg11.dtd"><svg t="1583314389121" class="icon" viewBox="0 0 1024 1024" version="1.1" xmlns="http://www.w3.org/2000/svg" p-id="2538" xmlns:xlink="http://www.w3.org/1999/xlink" width="200" height="200"><defs><style type="text/css"></style></defs><path d="M480 640l64 0C561.92 640 576 625.92 576 608S561.92 576 544 576l-64 0C462.08 576 448 590.08 448 608S462.08 640 480 640zM480 768l64 0C561.92 768 576 753.92 576 736 576 718.08 561.92 704 544 704l-64 0C462.08 704 448 718.08 448 736 448 753.92 462.08 768 480 768zM832 192l-128 0L704 160C704 142.08 689.92 128 672 128 654.08 128 640 142.08 640 160L640 192 384 192 384 160C384 142.08 369.92 128 352 128S320 142.08 320 160L320 192 192 192C121.6 192 64 249.6 64 320l0 512c0 70.4 57.6 128 128 128l640 0c70.4 0 128-57.6 128-128L960 320C960 249.6 902.4 192 832 192zM896 832c0 35.2-28.8 64-64 64L192 896c-35.2 0-64-28.8-64-64L128 448l768 0L896 832zM896 384 128 384 128 320c0-35.2 28.8-64 64-64l128 0 0 32C320 305.92 334.08 320 352 320S384 305.92 384 288L384 256l256 0 0 32C640 305.92 654.08 320 672 320 689.92 320 704 305.92 704 288L704 256l128 0c35.2 0 64 28.8 64 64L896 384zM288 768l64 0C369.92 768 384 753.92 384 736 384 718.08 369.92 704 352 704l-64 0C270.08 704 256 718.08 256 736 256 753.92 270.08 768 288 768zM672 640l64 0c17.92 0 32-14.08 32-32S753.92 576 736 576l-64 0C654.08 576 640 590.08 640 608S654.08 640 672 640zM288 640l64 0C369.92 640 384 625.92 384 608S369.92 576 352 576l-64 0C270.08 576 256 590.08 256 608S270.08 640 288 640zM672 768l64 0c17.92 0 32-14.08 32-32 0-17.92-14.08-32-32-32l-64 0c-17.92 0-32 14.08-32 32C640 753.92 654.08 768 672 768z" p-id="2539" fill="#515151"></path></svg>