<?xml version="1.0" standalone="no"?><!DOCTYPE svg PUBLIC "-//W3C//DTD SVG 1.1//EN" "http://www.w3.org/Graphics/SVG/1.1/DTD/svg11.dtd"><svg t="1582966971437" class="icon" viewBox="0 0 1024 1024" version="1.1" xmlns="http://www.w3.org/2000/svg" p-id="5842" xmlns:xlink="http://www.w3.org/1999/xlink" width="200" height="200"><defs><style type="text/css"></style></defs><path d="M431.8 350c36.8 0 71.5 7.9 104.3 23.6 24.6 11.6 46.8 27.4 66.8 47.3 19.9 19.9 35.7 42.2 47.3 66.7-15.8 15.8-34.8 23.6-57 23.6-7.8 0-15.6-1.2-23.6-3.5-13.4-21.8-31.8-40.1-53.6-53.6-25.8-15.7-53.9-23.6-84.1-23.6-21 0-41.4 4-61.1 12-19.7 8-37.4 19.8-52.9 35.3l-121 121c-15.5 15.5-27.3 33.2-35.3 52.9-7.9 19.4-12 40.1-12 61.1s4 41.4 12 61.1c8 19.8 19.7 37.4 35.3 52.9 15.6 15.6 33.2 27.3 52.9 35.3 19.4 7.9 40.2 12 61.2 12s41.4-4 61.1-12c19.7-8 37.4-19.8 52.9-35.3l84.7-84.7c26.9 7.3 54.7 11 83.5 11 4.6 0 11.1-0.2 19.5-0.6-3.2 3.5-6.4 7-9.7 10.4l-121 121c-23.3 23.3-49.7 40.9-79.3 52.9-29.1 11.9-60.3 18-91.8 18s-62.2-6-91.8-18.1c-29.7-12.1-56.1-29.7-79.3-52.8-23.3-23.3-40.9-49.7-52.9-79.2-11.9-29.1-18-60.3-18-91.8s6.1-62.7 18-91.8c12-29.5 29.6-55.9 52.9-79.2l121-121c2.3-2.3 5.8-5.5 10.4-9.8 22.5-20 47.6-35.1 75.3-45.5 27.7-10.3 56.1-15.5 85.3-15.6zM714.1 67.8c31.5 0 62.7 6.1 91.8 18 29.5 11.9 55.9 29.6 79.3 52.9 23.3 23.3 41 49.7 52.9 79.2 11.9 29.2 18 60.3 17.9 91.8 0 31.5-6.1 62.1-18.1 91.8-12.1 29.7-29.7 56.1-52.8 79.2l-121 121c-2.3 2.4-5.8 5.6-10.4 9.8-22.4 20-47.5 35.1-75.3 45.5-27.3 10.3-56.2 15.6-85.4 15.6-36.7 0-71.5-7.9-104.3-23.6-24.6-11.6-46.8-27.4-66.8-47.3-19.9-19.9-35.7-42.2-47.3-66.7 15.7-15.8 34.7-23.6 57-23.6 7.8 0 15.7 1.2 23.6 3.5 13.4 21.8 31.7 40.1 53.5 53.6 25.9 15.7 53.9 23.6 84.1 23.6 21 0 41.4-4 61.1-12 19.8-8 37.4-19.8 52.9-35.3l121-121c15.6-15.5 27.3-33.2 35.3-52.9 7.9-19.4 12-40.1 12-61.1s-4-41.4-12-61.1c-8-19.8-19.8-37.4-35.3-52.9-15.6-15.6-33.2-27.3-52.9-35.3-19.4-7.9-40.2-12-61.1-12-21 0-41.4 4-61.1 12-19.8 8-37.4 19.8-52.9 35.3L515 280.5c-26.9-7.3-54.7-11-83.5-11-4.6 0-11.1 0.2-19.5 0.6 3.2-3.5 6.4-7 9.8-10.4l121-121c23.1-23.1 49.5-40.7 79.2-52.8 29.9-12.1 60.5-18.2 92.1-18.1z m0 0" p-id="5843"></path></svg>